<svg width="220" height="221" viewBox="0 0 220 221" fill="none" xmlns="http://www.w3.org/2000/svg">
<path fill-rule="evenodd" clip-rule="evenodd" d="M2.11416 131.96C5.68579 149.916 13.6705 166.641 25.2789 180.659C28.9115 185.045 35.4835 185.017 39.5107 180.99C43.538 176.963 43.4841 170.466 39.9443 166.004C27.849 150.758 20.6252 131.473 20.6252 110.5C20.6252 61.1395 60.6397 21.125 110 21.125C159.361 21.125 199.375 61.1395 199.375 110.5C199.375 131.472 192.151 150.758 180.056 166.003C176.517 170.465 176.463 176.962 180.49 180.99C184.517 185.017 191.09 185.045 194.722 180.659C206.331 166.641 214.315 149.916 217.887 131.96C222.131 110.622 219.953 88.5047 211.627 68.4048C203.302 48.305 189.203 31.1253 171.113 19.0384C153.024 6.95142 131.756 0.500033 110.001 0.500031C88.2446 0.500031 66.9772 6.95142 48.8878 19.0384C30.7984 31.1253 16.6994 48.305 8.37379 68.4048C0.0481496 88.5047 -2.13022 110.622 2.11416 131.96Z" fill="#DDE1E6"/>
<path fill-rule="evenodd" clip-rule="evenodd" d="M8.07932 151.879C12.317 162.317 18.125 172.023 25.2851 180.667C28.9143 185.049 35.4793 185.02 39.5023 180.997C43.5252 176.975 43.4713 170.485 39.9375 166.026C35.3435 160.229 31.4809 153.877 28.4443 147.113C26.4885 142.763 24.8704 138.229 23.6236 133.543C21.5142 125.636 20.4959 117.46 20.6116 109.242C20.7152 101.879 21.7279 94.5749 23.614 87.4927C24.8673 82.775 26.4967 78.2105 28.4683 73.8333C33.2604 63.1776 40.096 53.5622 48.5905 45.5328C55.845 38.6756 64.1865 33.0916 73.2619 29.0006C77.6926 27.0002 82.3158 25.3505 87.0958 24.0868C95.7752 21.7864 104.768 20.8023 113.773 21.1827C120.228 21.4554 126.618 22.4262 132.833 24.0682C137.678 25.3448 142.362 27.0179 146.849 29.0507C147.313 29.2606 147.775 29.4746 148.235 29.6925C155.927 33.3322 163.044 38.0437 169.379 43.6728C173.632 47.4518 180.109 47.8708 184.352 44.0806C188.595 40.2903 188.992 33.7373 184.822 29.8674C176.594 22.2322 167.23 15.8874 157.048 11.0691C143.755 4.77927 129.335 1.21873 114.642 0.598041C99.9496 -0.0226494 85.2815 2.30911 71.5054 7.45544C57.7293 12.6018 45.125 20.4582 34.4378 30.5601C23.7506 40.662 15.1975 52.8044 9.2842 66.2691C3.37094 79.7338 0.217601 94.2475 0.0106494 108.952C-0.196302 123.657 2.54733 138.253 8.07932 151.879Z" fill="#878D96"/>
<path d="M92.2847 166.515H92.9409V170.109H92.6753C91.4878 170.109 90.4305 170.286 89.5034 170.64C88.5763 170.994 87.7899 171.5 87.144 172.156C86.5086 172.802 86.019 173.583 85.6753 174.5C85.342 175.416 85.1753 176.442 85.1753 177.578V181.359C85.1753 182.171 85.2534 182.89 85.4097 183.515C85.5763 184.13 85.8107 184.645 86.1128 185.062C86.4253 185.468 86.7899 185.776 87.2065 185.984C87.6232 186.182 88.092 186.281 88.6128 186.281C89.1024 186.281 89.5451 186.177 89.9409 185.968C90.3472 185.76 90.6909 185.468 90.9722 185.093C91.2638 184.708 91.4826 184.26 91.6284 183.75C91.7847 183.229 91.8628 182.661 91.8628 182.046C91.8628 181.432 91.7847 180.864 91.6284 180.343C91.4826 179.822 91.2638 179.375 90.9722 179C90.6805 178.614 90.3263 178.317 89.9097 178.109C89.493 177.901 89.0243 177.796 88.5034 177.796C87.7951 177.796 87.1701 177.963 86.6284 178.296C86.0972 178.619 85.6805 179.036 85.3784 179.546C85.0763 180.057 84.9149 180.593 84.894 181.156L83.5347 180.281C83.5659 179.479 83.7326 178.718 84.0347 178C84.3472 177.281 84.7743 176.645 85.3159 176.093C85.868 175.531 86.5295 175.093 87.3003 174.781C88.0711 174.458 88.9409 174.296 89.9097 174.296C90.9722 174.296 91.9045 174.5 92.7065 174.906C93.519 175.312 94.1961 175.869 94.7378 176.578C95.2795 177.286 95.6857 178.104 95.9565 179.031C96.2274 179.958 96.3628 180.947 96.3628 182C96.3628 183.104 96.1805 184.13 95.8159 185.078C95.4618 186.026 94.9461 186.854 94.269 187.562C93.6024 188.27 92.8003 188.822 91.8628 189.218C90.9253 189.614 89.8732 189.812 88.7065 189.812C87.4982 189.812 86.3993 189.593 85.4097 189.156C84.4305 188.708 83.5868 188.083 82.8784 187.281C82.1701 186.479 81.6232 185.526 81.2378 184.421C80.8628 183.317 80.6753 182.109 80.6753 180.796V179.046C80.6753 177.213 80.9409 175.536 81.4722 174.015C82.0138 172.484 82.7899 171.161 83.8003 170.046C84.8107 168.921 86.0295 168.052 87.4565 167.437C88.8836 166.822 90.493 166.515 92.2847 166.515ZM114.503 166.75V169.171L105.707 189.5H100.957L109.753 170.265H98.4253V166.75H114.503ZM117.363 172.328V171.125C117.363 170.26 117.55 169.473 117.925 168.765C118.3 168.057 118.852 167.489 119.582 167.062C120.311 166.635 121.207 166.421 122.269 166.421C123.363 166.421 124.274 166.635 125.003 167.062C125.743 167.489 126.295 168.057 126.66 168.765C127.035 169.473 127.222 170.26 127.222 171.125V172.328C127.222 173.171 127.035 173.947 126.66 174.656C126.295 175.364 125.748 175.932 125.019 176.359C124.29 176.786 123.389 177 122.316 177C121.233 177 120.321 176.786 119.582 176.359C118.852 175.932 118.3 175.364 117.925 174.656C117.55 173.947 117.363 173.171 117.363 172.328ZM120.347 171.125V172.328C120.347 172.692 120.415 173.041 120.55 173.375C120.696 173.697 120.915 173.963 121.207 174.171C121.509 174.369 121.873 174.468 122.3 174.468C122.748 174.468 123.113 174.369 123.394 174.171C123.675 173.963 123.884 173.697 124.019 173.375C124.154 173.041 124.222 172.692 124.222 172.328V171.125C124.222 170.739 124.149 170.385 124.003 170.062C123.868 169.729 123.654 169.463 123.363 169.265C123.082 169.057 122.717 168.953 122.269 168.953C121.852 168.953 121.498 169.057 121.207 169.265C120.915 169.463 120.696 169.729 120.55 170.062C120.415 170.385 120.347 170.739 120.347 171.125ZM128.238 185.125V183.921C128.238 183.067 128.425 182.286 128.8 181.578C129.186 180.869 129.743 180.302 130.472 179.875C131.212 179.447 132.118 179.234 133.191 179.234C134.274 179.234 135.181 179.447 135.91 179.875C136.639 180.302 137.191 180.869 137.566 181.578C137.941 182.286 138.128 183.067 138.128 183.921V185.125C138.128 185.979 137.941 186.76 137.566 187.468C137.201 188.177 136.654 188.744 135.925 189.171C135.196 189.598 134.295 189.812 133.222 189.812C132.139 189.812 131.227 189.598 130.488 189.171C129.748 188.744 129.186 188.177 128.8 187.468C128.425 186.76 128.238 185.979 128.238 185.125ZM131.238 183.921V185.125C131.238 185.5 131.321 185.854 131.488 186.187C131.654 186.52 131.884 186.786 132.175 186.984C132.477 187.182 132.826 187.281 133.222 187.281C133.722 187.281 134.113 187.182 134.394 186.984C134.675 186.786 134.868 186.52 134.972 186.187C135.087 185.854 135.144 185.5 135.144 185.125V183.921C135.144 183.546 135.071 183.197 134.925 182.875C134.779 182.541 134.561 182.276 134.269 182.078C133.988 181.869 133.628 181.765 133.191 181.765C132.753 181.765 132.389 181.869 132.097 182.078C131.816 182.276 131.602 182.541 131.457 182.875C131.311 183.197 131.238 183.546 131.238 183.921ZM134.3 170L123.191 187.781L121.003 186.625L132.113 168.843L134.3 170Z" fill="#697077"/>
</svg>
