<svg width="222" height="221" viewBox="0 0 222 221" fill="none" xmlns="http://www.w3.org/2000/svg">
<path d="M111 220.5C171.751 220.5 221 171.251 221 110.5C221 49.7487 171.751 0.5 111 0.5C50.2487 0.5 1 49.7487 1 110.5C1 171.251 50.2487 220.5 111 220.5Z" stroke="#C1C7CD"/>
<path d="M111 198.5C159.601 198.5 199 159.101 199 110.5C199 61.8989 159.601 22.5 111 22.5C62.3989 22.5 23 61.8989 23 110.5C23 159.101 62.3989 198.5 111 198.5Z" stroke="#C1C7CD"/>
<path d="M111 176.5C147.451 176.5 177 146.951 177 110.5C177 74.0492 147.451 44.5 111 44.5C74.5492 44.5 45 74.0492 45 110.5C45 146.951 74.5492 176.5 111 176.5Z" stroke="#C1C7CD"/>
<path d="M111 154.5C135.301 154.5 155 134.801 155 110.5C155 86.1995 135.301 66.5 111 66.5C86.6995 66.5 67 86.1995 67 110.5C67 134.801 86.6995 154.5 111 154.5Z" stroke="#C1C7CD"/>
<path d="M111 132.5C123.15 132.5 133 122.65 133 110.5C133 98.3497 123.15 88.5 111 88.5C98.8497 88.5 89 98.3497 89 110.5C89 122.65 98.8497 132.5 111 132.5Z" stroke="#C1C7CD"/>
<path d="M199.159 71.8726C204.354 83.7294 207.104 96.5124 207.244 109.457C207.385 122.401 204.912 135.24 199.976 147.207C195.039 159.174 187.739 170.021 178.512 179.101C169.286 188.181 158.323 195.307 146.278 200.052L111 110.5L199.159 71.8726Z" fill="#878D96" stroke="white"/>
<path d="M18.9185 82.4811C24.9017 62.8179 37.0222 45.5863 53.5057 33.3089C69.9892 21.0315 89.97 14.353 110.523 14.2512L111 110.5L18.9185 82.4811Z" fill="#697077" stroke="white"/>
<path d="M110.624 36.0566C125.07 36.0566 139.201 40.2812 151.277 48.2102C163.353 56.1392 172.846 67.4266 178.589 80.6825L110.624 110.124L110.624 36.0566Z" fill="#A2A9B0" stroke="white"/>
<path d="M137.866 179C125.643 183.834 112.354 185.329 99.3632 183.33C86.3721 181.332 74.1468 175.913 63.9421 167.629L110.624 110.124L137.866 179Z" fill="#C1C7CD" stroke="white"/>
<path d="M88.5619 137.033C83.2326 132.683 79.3119 126.851 77.2951 120.274C75.2782 113.698 75.2556 106.67 77.2301 100.081L110.57 110.07L88.5619 137.033Z" fill="#DDE1E6" stroke="white"/>
</svg>
