<svg width="224" height="39" viewBox="0 0 224 39" fill="none" xmlns="http://www.w3.org/2000/svg">
<path fill-rule="evenodd" clip-rule="evenodd" d="M21.5 0V24H45.5V0H21.5ZM24.9142 2L33.5 10.5858L42.0858 2H24.9142ZM43.5 3.41421L34.9142 12L43.5 20.5858V3.41421ZM42.0858 22L33.5 13.4142L24.9142 22H42.0858ZM23.5 20.5858L32.0858 12L23.5 3.41421V20.5858Z" fill="#4D5358"/>
<path d="M55.1367 18.293L58.5352 3.9375H60.4336L60.8672 6.32812L57.2461 21H55.207L55.1367 18.293ZM53.3906 3.9375L56.2031 18.293L55.9688 21H53.6953L49.9102 3.9375H53.3906ZM63.8555 18.2344L66.6328 3.9375H70.1133L66.3398 21H64.0664L63.8555 18.2344ZM61.5 3.9375L64.9219 18.3516L64.8281 21H62.7891L59.1445 6.31641L59.6133 3.9375H61.5ZM77.2734 21.2344C76.2891 21.2344 75.4062 21.0781 74.625 20.7656C73.8438 20.4453 73.1797 20.0039 72.6328 19.4414C72.0938 18.8789 71.6797 18.2266 71.3906 17.4844C71.1016 16.7344 70.957 15.9375 70.957 15.0938V14.625C70.957 13.6641 71.0938 12.7852 71.3672 11.9883C71.6406 11.1914 72.0312 10.5 72.5391 9.91406C73.0547 9.32812 73.6797 8.87891 74.4141 8.56641C75.1484 8.24609 75.9766 8.08594 76.8984 8.08594C77.7969 8.08594 78.5938 8.23438 79.2891 8.53125C79.9844 8.82812 80.5664 9.25 81.0352 9.79688C81.5117 10.3438 81.8711 11 82.1133 11.7656C82.3555 12.5234 82.4766 13.3672 82.4766 14.2969V15.7031H72.3984V13.4531H79.1602V13.1953C79.1602 12.7266 79.0742 12.3086 78.9023 11.9414C78.7383 11.5664 78.4883 11.2695 78.1523 11.0508C77.8164 10.832 77.3867 10.7227 76.8633 10.7227C76.418 10.7227 76.0352 10.8203 75.7148 11.0156C75.3945 11.2109 75.1328 11.4844 74.9297 11.8359C74.7344 12.1875 74.5859 12.6016 74.4844 13.0781C74.3906 13.5469 74.3438 14.0625 74.3438 14.625V15.0938C74.3438 15.6016 74.4141 16.0703 74.5547 16.5C74.7031 16.9297 74.9102 17.3008 75.1758 17.6133C75.4492 17.9258 75.7773 18.168 76.1602 18.3398C76.5508 18.5117 76.9922 18.5977 77.4844 18.5977C78.0938 18.5977 78.6602 18.4805 79.1836 18.2461C79.7148 18.0039 80.1719 17.6406 80.5547 17.1562L82.1953 18.9375C81.9297 19.3203 81.5664 19.6875 81.1055 20.0391C80.6523 20.3906 80.1055 20.6797 79.4648 20.9062C78.8242 21.125 78.0938 21.2344 77.2734 21.2344ZM84.3984 3H87.7734V18.0938L87.4336 21H84.3984V3ZM95.8008 14.5312V14.7773C95.8008 15.7227 95.6992 16.5898 95.4961 17.3789C95.3008 18.168 94.9961 18.8516 94.582 19.4297C94.168 20 93.6523 20.4453 93.0352 20.7656C92.4258 21.0781 91.707 21.2344 90.8789 21.2344C90.1055 21.2344 89.4336 21.0781 88.8633 20.7656C88.3008 20.4531 87.8281 20.0117 87.4453 19.4414C87.0625 18.8711 86.7539 18.2031 86.5195 17.4375C86.2852 16.6719 86.1094 15.8359 85.9922 14.9297V14.3906C86.1094 13.4844 86.2852 12.6484 86.5195 11.8828C86.7539 11.1172 87.0625 10.4492 87.4453 9.87891C87.8281 9.30859 88.3008 8.86719 88.8633 8.55469C89.4258 8.24219 90.0898 8.08594 90.8555 8.08594C91.6914 8.08594 92.418 8.24609 93.0352 8.56641C93.6602 8.87891 94.1758 9.32422 94.582 9.90234C94.9961 10.4727 95.3008 11.1523 95.4961 11.9414C95.6992 12.7227 95.8008 13.5859 95.8008 14.5312ZM92.4258 14.7773V14.5312C92.4258 14.0156 92.3867 13.5312 92.3086 13.0781C92.2383 12.6172 92.1133 12.2148 91.9336 11.8711C91.7539 11.5195 91.5078 11.2422 91.1953 11.0391C90.8906 10.8359 90.4961 10.7344 90.0117 10.7344C89.5508 10.7344 89.1602 10.8125 88.8398 10.9688C88.5195 11.125 88.2539 11.3438 88.043 11.625C87.8398 11.9062 87.6875 12.2422 87.5859 12.6328C87.4844 13.0156 87.4219 13.4375 87.3984 13.8984V15.4336C87.4219 16.0508 87.5234 16.5977 87.7031 17.0742C87.8906 17.543 88.1719 17.9141 88.5469 18.1875C88.9297 18.4531 89.4258 18.5859 90.0352 18.5859C90.5117 18.5859 90.9062 18.4922 91.2188 18.3047C91.5312 18.1172 91.7734 17.8516 91.9453 17.5078C92.125 17.1641 92.25 16.7617 92.3203 16.3008C92.3906 15.832 92.4258 15.3242 92.4258 14.7773ZM97.8984 3H101.273V18.0938L100.934 21H97.8984V3ZM109.301 14.5312V14.7773C109.301 15.7227 109.199 16.5898 108.996 17.3789C108.801 18.168 108.496 18.8516 108.082 19.4297C107.668 20 107.152 20.4453 106.535 20.7656C105.926 21.0781 105.207 21.2344 104.379 21.2344C103.605 21.2344 102.934 21.0781 102.363 20.7656C101.801 20.4531 101.328 20.0117 100.945 19.4414C100.562 18.8711 100.254 18.2031 100.02 17.4375C99.7852 16.6719 99.6094 15.8359 99.4922 14.9297V14.3906C99.6094 13.4844 99.7852 12.6484 100.02 11.8828C100.254 11.1172 100.562 10.4492 100.945 9.87891C101.328 9.30859 101.801 8.86719 102.363 8.55469C102.926 8.24219 103.59 8.08594 104.355 8.08594C105.191 8.08594 105.918 8.24609 106.535 8.56641C107.16 8.87891 107.676 9.32422 108.082 9.90234C108.496 10.4727 108.801 11.1523 108.996 11.9414C109.199 12.7227 109.301 13.5859 109.301 14.5312ZM105.926 14.7773V14.5312C105.926 14.0156 105.887 13.5312 105.809 13.0781C105.738 12.6172 105.613 12.2148 105.434 11.8711C105.254 11.5195 105.008 11.2422 104.695 11.0391C104.391 10.8359 103.996 10.7344 103.512 10.7344C103.051 10.7344 102.66 10.8125 102.34 10.9688C102.02 11.125 101.754 11.3438 101.543 11.625C101.34 11.9062 101.188 12.2422 101.086 12.6328C100.984 13.0156 100.922 13.4375 100.898 13.8984V15.4336C100.922 16.0508 101.023 16.5977 101.203 17.0742C101.391 17.543 101.672 17.9141 102.047 18.1875C102.43 18.4531 102.926 18.5859 103.535 18.5859C104.012 18.5859 104.406 18.4922 104.719 18.3047C105.031 18.1172 105.273 17.8516 105.445 17.5078C105.625 17.1641 105.75 16.7617 105.82 16.3008C105.891 15.832 105.926 15.3242 105.926 14.7773ZM115.02 19.5703L118.383 8.32031H122.004L116.906 22.9102C116.797 23.2305 116.648 23.5742 116.461 23.9414C116.281 24.3086 116.035 24.6562 115.723 24.9844C115.418 25.3203 115.031 25.5938 114.562 25.8047C114.102 26.0156 113.535 26.1211 112.863 26.1211C112.543 26.1211 112.281 26.1016 112.078 26.0625C111.875 26.0234 111.633 25.9688 111.352 25.8984V23.4258C111.438 23.4258 111.527 23.4258 111.621 23.4258C111.715 23.4336 111.805 23.4375 111.891 23.4375C112.336 23.4375 112.699 23.3867 112.98 23.2852C113.262 23.1836 113.488 23.0273 113.66 22.8164C113.832 22.6133 113.969 22.3477 114.07 22.0195L115.02 19.5703ZM113.613 8.32031L116.367 17.5078L116.848 21.082L114.551 21.3281L109.992 8.32031H113.613ZM127.078 3.9375V21H123.562V3.9375H127.078ZM133.875 11.2266V13.9688H126.117V11.2266H133.875ZM134.695 3.9375V6.69141H126.117V3.9375H134.695ZM139.594 11.0859V21H136.219V8.32031H139.395L139.594 11.0859ZM143.414 8.23828L143.355 11.3672C143.191 11.3438 142.992 11.3242 142.758 11.3086C142.531 11.2852 142.324 11.2734 142.137 11.2734C141.66 11.2734 141.246 11.3359 140.895 11.4609C140.551 11.5781 140.262 11.7539 140.027 11.9883C139.801 12.2227 139.629 12.5078 139.512 12.8438C139.402 13.1797 139.34 13.5625 139.324 13.9922L138.645 13.7812C138.645 12.9609 138.727 12.207 138.891 11.5195C139.055 10.8242 139.293 10.2188 139.605 9.70312C139.926 9.1875 140.316 8.78906 140.777 8.50781C141.238 8.22656 141.766 8.08594 142.359 8.08594C142.547 8.08594 142.738 8.10156 142.934 8.13281C143.129 8.15625 143.289 8.19141 143.414 8.23828ZM151.453 18.1406V12.4922C151.453 12.0859 151.387 11.7383 151.254 11.4492C151.121 11.1523 150.914 10.9219 150.633 10.7578C150.359 10.5938 150.004 10.5117 149.566 10.5117C149.191 10.5117 148.867 10.5781 148.594 10.7109C148.32 10.8359 148.109 11.0195 147.961 11.2617C147.812 11.4961 147.738 11.7734 147.738 12.0938H144.363C144.363 11.5547 144.488 11.043 144.738 10.5586C144.988 10.0742 145.352 9.64844 145.828 9.28125C146.305 8.90625 146.871 8.61328 147.527 8.40234C148.191 8.19141 148.934 8.08594 149.754 8.08594C150.738 8.08594 151.613 8.25 152.379 8.57812C153.145 8.90625 153.746 9.39844 154.184 10.0547C154.629 10.7109 154.852 11.5312 154.852 12.5156V17.9414C154.852 18.6367 154.895 19.207 154.98 19.6523C155.066 20.0898 155.191 20.4727 155.355 20.8008V21H151.945C151.781 20.6562 151.656 20.2266 151.57 19.7109C151.492 19.1875 151.453 18.6641 151.453 18.1406ZM151.898 13.2773L151.922 15.1875H150.035C149.59 15.1875 149.203 15.2383 148.875 15.3398C148.547 15.4414 148.277 15.5859 148.066 15.7734C147.855 15.9531 147.699 16.1641 147.598 16.4062C147.504 16.6484 147.457 16.9141 147.457 17.2031C147.457 17.4922 147.523 17.7539 147.656 17.9883C147.789 18.2148 147.98 18.3945 148.23 18.5273C148.48 18.6523 148.773 18.7148 149.109 18.7148C149.617 18.7148 150.059 18.6133 150.434 18.4102C150.809 18.207 151.098 17.957 151.301 17.6602C151.512 17.3633 151.621 17.082 151.629 16.8164L152.52 18.2461C152.395 18.5664 152.223 18.8984 152.004 19.2422C151.793 19.5859 151.523 19.9102 151.195 20.2148C150.867 20.5117 150.473 20.7578 150.012 20.9531C149.551 21.1406 149.004 21.2344 148.371 21.2344C147.566 21.2344 146.836 21.0742 146.18 20.7539C145.531 20.4258 145.016 19.9766 144.633 19.4062C144.258 18.8281 144.07 18.1719 144.07 17.4375C144.07 16.7734 144.195 16.1836 144.445 15.668C144.695 15.1523 145.062 14.7188 145.547 14.3672C146.039 14.0078 146.652 13.7383 147.387 13.5586C148.121 13.3711 148.973 13.2773 149.941 13.2773H151.898ZM160.828 10.9453V21H157.441V8.32031H160.617L160.828 10.9453ZM160.359 14.2148H159.422C159.422 13.332 159.527 12.5195 159.738 11.7773C159.957 11.0273 160.273 10.3789 160.688 9.83203C161.109 9.27734 161.629 8.84766 162.246 8.54297C162.863 8.23828 163.578 8.08594 164.391 8.08594C164.953 8.08594 165.469 8.17188 165.938 8.34375C166.406 8.50781 166.809 8.76953 167.145 9.12891C167.488 9.48047 167.754 9.94141 167.941 10.5117C168.129 11.0742 168.223 11.75 168.223 12.5391V21H164.848V12.9141C164.848 12.3359 164.77 11.8906 164.613 11.5781C164.457 11.2656 164.234 11.0469 163.945 10.9219C163.664 10.7969 163.324 10.7344 162.926 10.7344C162.488 10.7344 162.105 10.8242 161.777 11.0039C161.457 11.1836 161.191 11.4336 160.98 11.7539C160.77 12.0664 160.613 12.4336 160.512 12.8555C160.41 13.2773 160.359 13.7305 160.359 14.2148ZM167.906 13.8281L166.699 13.9805C166.699 13.1523 166.801 12.3828 167.004 11.6719C167.215 10.9609 167.523 10.3359 167.93 9.79688C168.344 9.25781 168.855 8.83984 169.465 8.54297C170.074 8.23828 170.777 8.08594 171.574 8.08594C172.184 8.08594 172.738 8.17578 173.238 8.35547C173.738 8.52734 174.164 8.80469 174.516 9.1875C174.875 9.5625 175.148 10.0547 175.336 10.6641C175.531 11.2734 175.629 12.0195 175.629 12.9023V21H172.242V12.9023C172.242 12.3164 172.164 11.8711 172.008 11.5664C171.859 11.2539 171.641 11.0391 171.352 10.9219C171.07 10.7969 170.734 10.7344 170.344 10.7344C169.938 10.7344 169.582 10.8164 169.277 10.9805C168.973 11.1367 168.719 11.3555 168.516 11.6367C168.312 11.918 168.16 12.2461 168.059 12.6211C167.957 12.9883 167.906 13.3906 167.906 13.8281ZM184.078 21.2344C183.094 21.2344 182.211 21.0781 181.43 20.7656C180.648 20.4453 179.984 20.0039 179.438 19.4414C178.898 18.8789 178.484 18.2266 178.195 17.4844C177.906 16.7344 177.762 15.9375 177.762 15.0938V14.625C177.762 13.6641 177.898 12.7852 178.172 11.9883C178.445 11.1914 178.836 10.5 179.344 9.91406C179.859 9.32812 180.484 8.87891 181.219 8.56641C181.953 8.24609 182.781 8.08594 183.703 8.08594C184.602 8.08594 185.398 8.23438 186.094 8.53125C186.789 8.82812 187.371 9.25 187.84 9.79688C188.316 10.3438 188.676 11 188.918 11.7656C189.16 12.5234 189.281 13.3672 189.281 14.2969V15.7031H179.203V13.4531H185.965V13.1953C185.965 12.7266 185.879 12.3086 185.707 11.9414C185.543 11.5664 185.293 11.2695 184.957 11.0508C184.621 10.832 184.191 10.7227 183.668 10.7227C183.223 10.7227 182.84 10.8203 182.52 11.0156C182.199 11.2109 181.938 11.4844 181.734 11.8359C181.539 12.1875 181.391 12.6016 181.289 13.0781C181.195 13.5469 181.148 14.0625 181.148 14.625V15.0938C181.148 15.6016 181.219 16.0703 181.359 16.5C181.508 16.9297 181.715 17.3008 181.98 17.6133C182.254 17.9258 182.582 18.168 182.965 18.3398C183.355 18.5117 183.797 18.5977 184.289 18.5977C184.898 18.5977 185.465 18.4805 185.988 18.2461C186.52 18.0039 186.977 17.6406 187.359 17.1562L189 18.9375C188.734 19.3203 188.371 19.6875 187.91 20.0391C187.457 20.3906 186.91 20.6797 186.27 20.9062C185.629 21.125 184.898 21.2344 184.078 21.2344ZM198.059 17.4961C198.059 17.2539 197.988 17.0352 197.848 16.8398C197.707 16.6445 197.445 16.4648 197.062 16.3008C196.688 16.1289 196.145 15.9727 195.434 15.832C194.793 15.6914 194.195 15.5156 193.641 15.3047C193.094 15.0859 192.617 14.8242 192.211 14.5195C191.812 14.2148 191.5 13.8555 191.273 13.4414C191.047 13.0195 190.934 12.5391 190.934 12C190.934 11.4688 191.047 10.9688 191.273 10.5C191.508 10.0312 191.84 9.61719 192.27 9.25781C192.707 8.89062 193.238 8.60547 193.863 8.40234C194.496 8.19141 195.207 8.08594 195.996 8.08594C197.098 8.08594 198.043 8.26172 198.832 8.61328C199.629 8.96484 200.238 9.44922 200.66 10.0664C201.09 10.6758 201.305 11.3711 201.305 12.1523H197.93C197.93 11.8242 197.859 11.5312 197.719 11.2734C197.586 11.0078 197.375 10.8008 197.086 10.6523C196.805 10.4961 196.438 10.418 195.984 10.418C195.609 10.418 195.285 10.4844 195.012 10.6172C194.738 10.7422 194.527 10.9141 194.379 11.1328C194.238 11.3438 194.168 11.5781 194.168 11.8359C194.168 12.0312 194.207 12.207 194.285 12.3633C194.371 12.5117 194.508 12.6484 194.695 12.7734C194.883 12.8984 195.125 13.0156 195.422 13.125C195.727 13.2266 196.102 13.3203 196.547 13.4062C197.461 13.5938 198.277 13.8398 198.996 14.1445C199.715 14.4414 200.285 14.8477 200.707 15.3633C201.129 15.8711 201.34 16.5391 201.34 17.3672C201.34 17.9297 201.215 18.4453 200.965 18.9141C200.715 19.3828 200.355 19.793 199.887 20.1445C199.418 20.4883 198.855 20.7578 198.199 20.9531C197.551 21.1406 196.82 21.2344 196.008 21.2344C194.828 21.2344 193.828 21.0234 193.008 20.6016C192.195 20.1797 191.578 19.6445 191.156 18.9961C190.742 18.3398 190.535 17.668 190.535 16.9805H193.734C193.75 17.4414 193.867 17.8125 194.086 18.0938C194.312 18.375 194.598 18.5781 194.941 18.7031C195.293 18.8281 195.672 18.8906 196.078 18.8906C196.516 18.8906 196.879 18.832 197.168 18.7148C197.457 18.5898 197.676 18.4258 197.824 18.2227C197.98 18.0117 198.059 17.7695 198.059 17.4961Z" fill="#697077"/>
<path d="M152.943 35H151.859V27.9922C151.859 27.5352 151.941 27.1504 152.105 26.8379C152.273 26.5215 152.514 26.2832 152.826 26.123C153.139 25.959 153.51 25.877 153.939 25.877C154.064 25.877 154.189 25.8848 154.314 25.9004C154.443 25.916 154.568 25.9395 154.689 25.9707L154.631 26.8555C154.549 26.8359 154.455 26.8223 154.35 26.8145C154.248 26.8066 154.146 26.8027 154.045 26.8027C153.814 26.8027 153.615 26.8496 153.447 26.9434C153.283 27.0332 153.158 27.166 153.072 27.3418C152.986 27.5176 152.943 27.7344 152.943 27.9922V35ZM154.291 28.6602V29.4922H150.857V28.6602H154.291ZM155.211 31.9004V31.7656C155.211 31.3086 155.277 30.8848 155.41 30.4941C155.543 30.0996 155.734 29.7578 155.984 29.4688C156.234 29.1758 156.537 28.9492 156.893 28.7891C157.248 28.625 157.646 28.543 158.088 28.543C158.533 28.543 158.934 28.625 159.289 28.7891C159.648 28.9492 159.953 29.1758 160.203 29.4688C160.457 29.7578 160.65 30.0996 160.783 30.4941C160.916 30.8848 160.982 31.3086 160.982 31.7656V31.9004C160.982 32.3574 160.916 32.7812 160.783 33.1719C160.65 33.5625 160.457 33.9043 160.203 34.1973C159.953 34.4863 159.65 34.7129 159.295 34.877C158.943 35.0371 158.545 35.1172 158.1 35.1172C157.654 35.1172 157.254 35.0371 156.898 34.877C156.543 34.7129 156.238 34.4863 155.984 34.1973C155.734 33.9043 155.543 33.5625 155.41 33.1719C155.277 32.7812 155.211 32.3574 155.211 31.9004ZM156.295 31.7656V31.9004C156.295 32.2168 156.332 32.5156 156.406 32.7969C156.48 33.0742 156.592 33.3203 156.74 33.5352C156.893 33.75 157.082 33.9199 157.309 34.0449C157.535 34.166 157.799 34.2266 158.1 34.2266C158.396 34.2266 158.656 34.166 158.879 34.0449C159.105 33.9199 159.293 33.75 159.441 33.5352C159.59 33.3203 159.701 33.0742 159.775 32.7969C159.854 32.5156 159.893 32.2168 159.893 31.9004V31.7656C159.893 31.4531 159.854 31.1582 159.775 30.8809C159.701 30.5996 159.588 30.3516 159.436 30.1367C159.287 29.918 159.1 29.7461 158.873 29.6211C158.65 29.4961 158.389 29.4336 158.088 29.4336C157.791 29.4336 157.529 29.4961 157.303 29.6211C157.08 29.7461 156.893 29.918 156.74 30.1367C156.592 30.3516 156.48 30.5996 156.406 30.8809C156.332 31.1582 156.295 31.4531 156.295 31.7656ZM163.426 29.6562V35H162.342V28.6602H163.396L163.426 29.6562ZM165.406 28.625L165.4 29.6328C165.311 29.6133 165.225 29.6016 165.143 29.5977C165.064 29.5898 164.975 29.5859 164.873 29.5859C164.623 29.5859 164.402 29.625 164.211 29.7031C164.02 29.7812 163.857 29.8906 163.725 30.0312C163.592 30.1719 163.486 30.3398 163.408 30.5352C163.334 30.7266 163.285 30.9375 163.262 31.168L162.957 31.3438C162.957 30.9609 162.994 30.6016 163.068 30.2656C163.146 29.9297 163.266 29.6328 163.426 29.375C163.586 29.1133 163.789 28.9102 164.035 28.7656C164.285 28.6172 164.582 28.543 164.926 28.543C165.004 28.543 165.094 28.5527 165.195 28.5723C165.297 28.5879 165.367 28.6055 165.406 28.625ZM170.68 26.4688V35H169.549V26.4688H170.68ZM174.254 30.3066V31.2324H170.434V30.3066H174.254ZM174.834 26.4688V27.3945H170.434V26.4688H174.834ZM177.195 28.6602V35H176.105V28.6602H177.195ZM176.023 26.9785C176.023 26.8027 176.076 26.6543 176.182 26.5332C176.291 26.4121 176.451 26.3516 176.662 26.3516C176.869 26.3516 177.027 26.4121 177.137 26.5332C177.25 26.6543 177.307 26.8027 177.307 26.9785C177.307 27.1465 177.25 27.291 177.137 27.4121C177.027 27.5293 176.869 27.5879 176.662 27.5879C176.451 27.5879 176.291 27.5293 176.182 27.4121C176.076 27.291 176.023 27.1465 176.023 26.9785ZM183.043 28.6602H184.027V34.8652C184.027 35.4238 183.914 35.9004 183.688 36.2949C183.461 36.6895 183.145 36.9883 182.738 37.1914C182.336 37.3984 181.871 37.502 181.344 37.502C181.125 37.502 180.867 37.4668 180.57 37.3965C180.277 37.3301 179.988 37.2148 179.703 37.0508C179.422 36.8906 179.186 36.6738 178.994 36.4004L179.562 35.7559C179.828 36.0762 180.105 36.2988 180.395 36.4238C180.688 36.5488 180.977 36.6113 181.262 36.6113C181.605 36.6113 181.902 36.5469 182.152 36.418C182.402 36.2891 182.596 36.0977 182.732 35.8438C182.873 35.5938 182.943 35.2852 182.943 34.918V30.0547L183.043 28.6602ZM178.678 31.9004V31.7773C178.678 31.293 178.734 30.8535 178.848 30.459C178.965 30.0605 179.131 29.7188 179.346 29.4336C179.564 29.1484 179.828 28.9297 180.137 28.7773C180.445 28.6211 180.793 28.543 181.18 28.543C181.578 28.543 181.926 28.6133 182.223 28.7539C182.523 28.8906 182.777 29.0918 182.984 29.3574C183.195 29.6191 183.361 29.9355 183.482 30.3066C183.604 30.6777 183.688 31.0977 183.734 31.5664V32.1055C183.691 32.5703 183.607 32.9883 183.482 33.3594C183.361 33.7305 183.195 34.0469 182.984 34.3086C182.777 34.5703 182.523 34.7715 182.223 34.9121C181.922 35.0488 181.57 35.1172 181.168 35.1172C180.789 35.1172 180.445 35.0371 180.137 34.877C179.832 34.7168 179.57 34.4922 179.352 34.2031C179.133 33.9141 178.965 33.5742 178.848 33.1836C178.734 32.7891 178.678 32.3613 178.678 31.9004ZM179.762 31.7773V31.9004C179.762 32.2168 179.793 32.5137 179.855 32.791C179.922 33.0684 180.021 33.3125 180.154 33.5234C180.291 33.7344 180.465 33.9004 180.676 34.0215C180.887 34.1387 181.139 34.1973 181.432 34.1973C181.791 34.1973 182.088 34.1211 182.322 33.9688C182.557 33.8164 182.742 33.6152 182.879 33.3652C183.02 33.1152 183.129 32.8438 183.207 32.5508V31.1387C183.164 30.9238 183.098 30.7168 183.008 30.5176C182.922 30.3145 182.809 30.1348 182.668 29.9785C182.531 29.8184 182.361 29.6914 182.158 29.5977C181.955 29.5039 181.717 29.457 181.443 29.457C181.146 29.457 180.891 29.5195 180.676 29.6445C180.465 29.7656 180.291 29.9336 180.154 30.1484C180.021 30.3594 179.922 30.6055 179.855 30.8867C179.793 31.1641 179.762 31.4609 179.762 31.7773ZM186.752 29.9199V35H185.662V28.6602H186.693L186.752 29.9199ZM186.529 31.5898L186.025 31.5723C186.029 31.1387 186.086 30.7383 186.195 30.3711C186.305 30 186.467 29.6777 186.682 29.4043C186.896 29.1309 187.164 28.9199 187.484 28.7715C187.805 28.6191 188.176 28.543 188.598 28.543C188.895 28.543 189.168 28.5859 189.418 28.6719C189.668 28.7539 189.885 28.8848 190.068 29.0645C190.252 29.2441 190.395 29.4746 190.496 29.7559C190.598 30.0371 190.648 30.377 190.648 30.7754V35H189.564V30.8281C189.564 30.4961 189.508 30.2305 189.395 30.0312C189.285 29.832 189.129 29.6875 188.926 29.5977C188.723 29.5039 188.484 29.457 188.211 29.457C187.891 29.457 187.623 29.5137 187.408 29.627C187.193 29.7402 187.021 29.8965 186.893 30.0957C186.764 30.2949 186.67 30.5234 186.611 30.7812C186.557 31.0352 186.529 31.3047 186.529 31.5898ZM190.637 30.9922L189.91 31.2148C189.914 30.8672 189.971 30.5332 190.08 30.2129C190.193 29.8926 190.355 29.6074 190.566 29.3574C190.781 29.1074 191.045 28.9102 191.357 28.7656C191.67 28.6172 192.027 28.543 192.43 28.543C192.77 28.543 193.07 28.5879 193.332 28.6777C193.598 28.7676 193.82 28.9062 194 29.0938C194.184 29.2773 194.322 29.5137 194.416 29.8027C194.51 30.0918 194.557 30.4355 194.557 30.834V35H193.467V30.8223C193.467 30.4668 193.41 30.1914 193.297 29.9961C193.188 29.7969 193.031 29.6582 192.828 29.5801C192.629 29.498 192.391 29.457 192.113 29.457C191.875 29.457 191.664 29.498 191.48 29.5801C191.297 29.6621 191.143 29.7754 191.018 29.9199C190.893 30.0605 190.797 30.2227 190.73 30.4062C190.668 30.5898 190.637 30.7852 190.637 30.9922ZM199.936 33.916V30.6523C199.936 30.4023 199.885 30.1855 199.783 30.002C199.686 29.8145 199.537 29.6699 199.338 29.5684C199.139 29.4668 198.893 29.416 198.6 29.416C198.326 29.416 198.086 29.4629 197.879 29.5566C197.676 29.6504 197.516 29.7734 197.398 29.9258C197.285 30.0781 197.229 30.2422 197.229 30.418H196.145C196.145 30.1914 196.203 29.9668 196.32 29.7441C196.438 29.5215 196.605 29.3203 196.824 29.1406C197.047 28.957 197.312 28.8125 197.621 28.707C197.934 28.5977 198.281 28.543 198.664 28.543C199.125 28.543 199.531 28.6211 199.883 28.7773C200.238 28.9336 200.516 29.1699 200.715 29.4863C200.918 29.7988 201.02 30.1914 201.02 30.6641V33.6172C201.02 33.8281 201.037 34.0527 201.072 34.291C201.111 34.5293 201.168 34.7344 201.242 34.9062V35H200.111C200.057 34.875 200.014 34.709 199.982 34.502C199.951 34.291 199.936 34.0957 199.936 33.916ZM200.123 31.1562L200.135 31.918H199.039C198.73 31.918 198.455 31.9434 198.213 31.9941C197.971 32.041 197.768 32.1133 197.604 32.2109C197.439 32.3086 197.314 32.4316 197.229 32.5801C197.143 32.7246 197.1 32.8945 197.1 33.0898C197.1 33.2891 197.145 33.4707 197.234 33.6348C197.324 33.7988 197.459 33.9297 197.639 34.0273C197.822 34.1211 198.047 34.168 198.312 34.168C198.645 34.168 198.938 34.0977 199.191 33.957C199.445 33.8164 199.646 33.6445 199.795 33.4414C199.947 33.2383 200.029 33.041 200.041 32.8496L200.504 33.3711C200.477 33.5352 200.402 33.7168 200.281 33.916C200.16 34.1152 199.998 34.3066 199.795 34.4902C199.596 34.6699 199.357 34.8203 199.08 34.9414C198.807 35.0586 198.498 35.1172 198.154 35.1172C197.725 35.1172 197.348 35.0332 197.023 34.8652C196.703 34.6973 196.453 34.4727 196.273 34.1914C196.098 33.9062 196.01 33.5879 196.01 33.2363C196.01 32.8965 196.076 32.5977 196.209 32.3398C196.342 32.0781 196.533 31.8613 196.783 31.6895C197.033 31.5137 197.334 31.3809 197.686 31.291C198.037 31.2012 198.43 31.1562 198.863 31.1562H200.123Z" fill="#697077"/>
</svg>
