<svg width="222" height="222" viewBox="0 0 222 222" fill="none" xmlns="http://www.w3.org/2000/svg">
<path d="M157.312 210.775C139.668 218.965 120.167 222.33 100.798 220.526C81.4287 218.721 62.8846 211.813 47.0561 200.505C31.2276 189.197 18.681 173.894 10.6955 156.155C2.71007 138.417 -0.428638 118.879 1.59946 99.5317L34.4196 102.972C32.9999 116.515 35.197 130.192 40.7869 142.609C46.3767 155.026 55.1593 165.738 66.2392 173.654C77.3192 181.569 90.3001 186.405 103.858 187.668C117.417 188.931 131.067 186.576 143.419 180.843L157.312 210.775Z" fill="#878D96" stroke="white"/>
<path d="M221 111C221 131.963 215.01 152.489 203.735 170.162C192.461 187.834 176.371 201.918 157.361 210.753L143.453 180.827C156.76 174.642 168.023 164.784 175.915 152.413C183.807 140.042 188 125.674 188 111H221Z" fill="#A2A9B0" stroke="white"/>
<path d="M1.5761 99.7565C3.56793 80.3713 10.6738 61.8631 22.1668 46.1257C33.6597 30.3882 49.1271 17.9864 66.9865 10.1891L80.1905 40.4323C67.6889 45.8904 56.8618 54.5717 48.8167 65.5879C40.7717 76.6041 35.7975 89.5598 34.4033 103.13L1.5761 99.7565Z" fill="#697077" stroke="white"/>
<path d="M66.9721 10.1955C83.7372 2.87308 102.064 -0.152307 120.293 1.39325C138.522 2.93881 156.078 9.0065 171.371 19.047C186.664 29.0875 199.211 42.7837 207.877 58.8956C216.542 75.0075 221.053 93.0263 220.999 111.321L188 111.224C188.037 98.4184 184.88 85.8052 178.814 74.5269C172.748 63.2485 163.965 53.6612 153.26 46.6329C142.554 39.6045 130.265 35.3571 117.505 34.2753C104.745 33.1934 91.916 35.3111 80.1804 40.4368L66.9721 10.1955Z" fill="#C1C7CD" stroke="white"/>
</svg>
