<svg width="19" height="19" viewBox="0 0 19 19" fill="none" xmlns="http://www.w3.org/2000/svg">
<path d="M12.126 10.846L11.942 9.81L16.432 5.319L13.581 2.467L9.089 6.957L8.054 6.773C7.13532 6.6083 6.18897 6.70141 5.32 7.042L11.858 13.579C12.1981 12.7102 12.2908 11.7643 12.126 10.846ZM7.876 12.45L2.17 18.154C1.9809 18.3431 1.72443 18.4493 1.457 18.4493C1.18958 18.4493 0.933103 18.3431 0.744004 18.154C0.554904 17.9649 0.448669 17.7084 0.448669 17.441C0.448669 17.1736 0.554904 16.9171 0.744004 16.728L6.449 11.024L2.17 6.745C2.97422 5.93954 3.96148 5.34075 5.04742 4.99978C6.13337 4.65881 7.28571 4.58581 8.406 4.787L12.153 1.04C12.3403 0.852625 12.5627 0.703986 12.8075 0.602576C13.0522 0.501165 13.3146 0.448969 13.5795 0.448969C13.8444 0.448969 14.1068 0.501165 14.3516 0.602576C14.5963 0.703986 14.8187 0.852625 15.006 1.04L17.858 3.893C18.2361 4.27124 18.4485 4.78417 18.4485 5.319C18.4485 5.85383 18.2361 6.36676 17.858 6.745L14.111 10.492C14.3122 11.6123 14.2392 12.7646 13.8982 13.8506C13.5573 14.9365 12.9585 15.9238 12.153 16.728L7.876 12.45Z" fill="#697077"/>
</svg>
