<svg width="15" height="15" viewBox="0 0 15 15" fill="none" xmlns="http://www.w3.org/2000/svg">
<path d="M8.40002 6.4V1.4C8.40002 1.13478 8.29467 0.880429 8.10713 0.692893C7.9196 0.505357 7.66524 0.4 7.40002 0.4C7.13481 0.4 6.88045 0.505357 6.69292 0.692893C6.50538 0.880429 6.40002 1.13478 6.40002 1.4V6.4H1.40002C1.13481 6.4 0.880454 6.50536 0.692918 6.69289C0.505381 6.88043 0.400024 7.13478 0.400024 7.4C0.400024 7.66522 0.505381 7.91957 0.692918 8.10711C0.880454 8.29464 1.13481 8.4 1.40002 8.4H6.40002V13.4C6.40002 13.6652 6.50538 13.9196 6.69292 14.1071C6.88045 14.2946 7.13481 14.4 7.40002 14.4C7.66524 14.4 7.9196 14.2946 8.10713 14.1071C8.29467 13.9196 8.40002 13.6652 8.40002 13.4V8.4H13.4C13.6652 8.4 13.9196 8.29464 14.1071 8.10711C14.2947 7.91957 14.4 7.66522 14.4 7.4C14.4 7.13478 14.2947 6.88043 14.1071 6.69289C13.9196 6.50536 13.6652 6.4 13.4 6.4H8.40002Z" fill="#697077"/>
</svg>
