<svg width="9" height="14" viewBox="0 0 9 14" fill="none" xmlns="http://www.w3.org/2000/svg">
<path d="M5.81396 7.07101L0.863964 2.12101C0.681806 1.93241 0.581011 1.67981 0.58329 1.41761C0.585568 1.15541 0.690737 0.904601 0.876145 0.719193C1.06155 0.533785 1.31237 0.428616 1.57456 0.426338C1.83676 0.424059 2.08936 0.524854 2.27796 0.707012L7.93496 6.36401C8.12243 6.55154 8.22775 6.80585 8.22775 7.07101C8.22775 7.33618 8.12243 7.59048 7.93496 7.77801L2.27796 13.435C2.08936 13.6172 1.83676 13.718 1.57456 13.7157C1.31237 13.7134 1.06155 13.6082 0.876145 13.4228C0.690737 13.2374 0.585568 12.9866 0.58329 12.7244C0.581011 12.4622 0.681806 12.2096 0.863964 12.021L5.81396 7.07101Z" fill="#0F62FE"/>
</svg>
