<svg width="24" height="24" viewBox="0 0 24 24" fill="none" xmlns="http://www.w3.org/2000/svg">
<path d="M12.2252 10.594L6.71616 16.104L4.84616 15.327L4.67916 15.496L7.05916 17.083L8.64716 19.463L8.81516 19.295L8.03916 17.425L13.5482 11.917L17.8762 18.169L18.0862 17.961L15.1992 10.265L19.5992 5.867C19.686 5.78013 19.7549 5.677 19.802 5.5635C19.849 5.45 19.8732 5.32835 19.8732 5.2055C19.8732 5.08265 19.849 4.961 19.802 4.8475C19.7549 4.734 19.686 4.63087 19.5992 4.544C19.5123 4.45713 19.4092 4.38822 19.2957 4.34121C19.1822 4.2942 19.0605 4.27 18.9377 4.27C18.8148 4.27 18.6932 4.2942 18.5797 4.34121C18.4662 4.38822 18.363 4.45713 18.2762 4.544L13.8762 8.943L6.18216 6.057L5.97216 6.266L12.2252 10.594ZM17.6152 21.077L13.2852 14.824L10.2452 17.864L11.0222 19.734L8.35616 22.399L5.71116 18.432L1.74316 15.786L4.40916 13.12L6.27816 13.896L9.31816 10.856L3.06516 6.528L5.71116 3.883L13.4062 6.768L16.9532 3.221C17.2126 2.95533 17.5221 2.74378 17.8639 2.59861C18.2056 2.45345 18.5728 2.37756 18.9441 2.37534C19.3154 2.37313 19.6835 2.44462 20.0269 2.58569C20.3704 2.72676 20.6825 2.9346 20.945 3.19715C21.2076 3.45971 21.4154 3.77176 21.5565 4.11523C21.6975 4.4587 21.769 4.82675 21.7668 5.19806C21.7646 5.56936 21.6887 5.93653 21.5436 6.27829C21.3984 6.62005 21.1868 6.9296 20.9212 7.189L17.3742 10.736L20.2602 18.432L17.6142 21.077H17.6152Z" fill="#21272A"/>
</svg>
