<svg width="25" height="24" viewBox="0 0 25 24" fill="none" xmlns="http://www.w3.org/2000/svg">
<path d="M22.15 12.9998C21.649 18.0528 17.385 21.9998 12.2 21.9998C6.67701 21.9998 2.20001 17.5228 2.20001 11.9998C2.20001 6.81483 6.14701 2.55083 11.2 2.04983V4.06183C9.18272 4.31851 7.33887 5.3337 6.0432 6.90105C4.74753 8.4684 4.09729 10.4703 4.22463 12.4999C4.35197 14.5294 5.24734 16.4343 6.72876 17.8274C8.21017 19.2206 10.1665 19.9973 12.2 19.9998C14.1486 19.9998 16.0302 19.2886 17.4918 17.9998C18.9533 16.711 19.8942 14.9331 20.138 12.9998H22.151H22.15ZM22.15 10.9998H20.138C19.9154 9.23743 19.1129 7.59916 17.8568 6.34306C16.6007 5.08696 14.9624 4.28441 13.2 4.06183V2.04883C15.4952 2.28006 17.6398 3.29743 19.2709 4.92865C20.9019 6.55986 21.919 8.70466 22.15 10.9998Z" fill="#DA1E28"/>
</svg>
