<svg width="21" height="20" viewBox="0 0 21 20" fill="none" xmlns="http://www.w3.org/2000/svg">
<path d="M20.35 10.9998C19.849 16.0528 15.585 19.9998 10.4 19.9998C4.87702 19.9998 0.400024 15.5228 0.400024 9.99983C0.400024 4.81483 4.34702 0.550828 9.40002 0.0498281V2.06183C7.38274 2.31851 5.53888 3.3337 4.24321 4.90105C2.94755 6.4684 2.2973 8.47029 2.42464 10.4999C2.55199 12.5294 3.44735 14.4343 4.92877 15.8274C6.41018 17.2206 8.36647 17.9973 10.4 17.9998C12.3486 17.9998 14.2303 17.2886 15.6918 15.9998C17.1533 14.711 18.0942 12.9331 18.338 10.9998H20.351H20.35ZM20.35 8.99983H18.338C18.1154 7.23743 17.3129 5.59916 16.0568 4.34306C14.8007 3.08696 13.1624 2.28441 11.4 2.06183V0.0488281C13.6952 0.280064 15.8398 1.29743 17.4709 2.92865C19.1019 4.55986 20.119 6.70466 20.35 8.99983Z" fill="#001D6C"/>
</svg>
