<svg width="21" height="20" viewBox="0 0 21 20" fill="none" xmlns="http://www.w3.org/2000/svg">
<path d="M10.6 18C12.7217 18 14.7565 17.1571 16.2568 15.6569C17.7571 14.1566 18.6 12.1217 18.6 10C18.6 7.87827 17.7571 5.84344 16.2568 4.34315C14.7565 2.84285 12.7217 2 10.6 2C8.47824 2 6.44341 2.84285 4.94312 4.34315C3.44283 5.84344 2.59998 7.87827 2.59998 10C2.59998 12.1217 3.44283 14.1566 4.94312 15.6569C6.44341 17.1571 8.47824 18 10.6 18ZM10.6 20C5.07698 20 0.599976 15.523 0.599976 10C0.599976 4.477 5.07698 0 10.6 0C16.123 0 20.6 4.477 20.6 10C20.6 15.523 16.123 20 10.6 20Z" fill="#697077"/>
</svg>
