<svg width="21" height="20" viewBox="0 0 21 20" fill="none" xmlns="http://www.w3.org/2000/svg">
<path d="M10.8 18C12.9217 18 14.9566 17.1571 16.4568 15.6569C17.9571 14.1566 18.8 12.1217 18.8 10C18.8 7.87827 17.9571 5.84344 16.4568 4.34315C14.9566 2.84285 12.9217 2 10.8 2C8.67826 2 6.64342 2.84285 5.14313 4.34315C3.64284 5.84344 2.79999 7.87827 2.79999 10C2.79999 12.1217 3.64284 14.1566 5.14313 15.6569C6.64342 17.1571 8.67826 18 10.8 18ZM10.8 20C5.27699 20 0.799988 15.523 0.799988 10C0.799988 4.477 5.27699 0 10.8 0C16.323 0 20.8 4.477 20.8 10C20.8 15.523 16.323 20 10.8 20Z" fill="#C1C7CD"/>
</svg>
