<svg width="21" height="20" viewBox="0 0 21 20" fill="none" xmlns="http://www.w3.org/2000/svg">
<path d="M4.5 2C3.96957 2 3.46086 2.21071 3.08579 2.58579C2.71071 2.96086 2.5 3.46957 2.5 4V16C2.5 16.5304 2.71071 17.0391 3.08579 17.4142C3.46086 17.7893 3.96957 18 4.5 18H16.5C17.0304 18 17.5391 17.7893 17.9142 17.4142C18.2893 17.0391 18.5 16.5304 18.5 16V4C18.5 3.46957 18.2893 2.96086 17.9142 2.58579C17.5391 2.21071 17.0304 2 16.5 2H4.5ZM4.5 0H16.5C17.5609 0 18.5783 0.421427 19.3284 1.17157C20.0786 1.92172 20.5 2.93913 20.5 4V16C20.5 17.0609 20.0786 18.0783 19.3284 18.8284C18.5783 19.5786 17.5609 20 16.5 20H4.5C3.43913 20 2.42172 19.5786 1.67157 18.8284C0.921427 18.0783 0.5 17.0609 0.5 16V4C0.5 2.93913 0.921427 1.92172 1.67157 1.17157C2.42172 0.421427 3.43913 0 4.5 0V0ZM11.5 11V15C11.5 15.2652 11.3946 15.5196 11.2071 15.7071C11.0196 15.8946 10.7652 16 10.5 16C10.2348 16 9.98043 15.8946 9.79289 15.7071C9.60536 15.5196 9.5 15.2652 9.5 15V11H5.5C5.23478 11 4.98043 10.8946 4.79289 10.7071C4.60536 10.5196 4.5 10.2652 4.5 10C4.5 9.73478 4.60536 9.48043 4.79289 9.29289C4.98043 9.10536 5.23478 9 5.5 9H9.5V5C9.5 4.73478 9.60536 4.48043 9.79289 4.29289C9.98043 4.10536 10.2348 4 10.5 4C10.7652 4 11.0196 4.10536 11.2071 4.29289C11.3946 4.48043 11.5 4.73478 11.5 5V9H15.5C15.7652 9 16.0196 9.10536 16.2071 9.29289C16.3946 9.48043 16.5 9.73478 16.5 10C16.5 10.2652 16.3946 10.5196 16.2071 10.7071C16.0196 10.8946 15.7652 11 15.5 11H11.5Z" fill="#001D6C"/>
</svg>
