<svg width="15" height="10" viewBox="0 0 15 10" fill="none" xmlns="http://www.w3.org/2000/svg">
<path d="M1.5 0H6.5C6.76522 0 7.01957 0.105357 7.20711 0.292893C7.39464 0.48043 7.5 0.734784 7.5 1C7.5 1.26522 7.39464 1.51957 7.20711 1.70711C7.01957 1.89464 6.76522 2 6.5 2H1.5C1.23478 2 0.98043 1.89464 0.792893 1.70711C0.605357 1.51957 0.5 1.26522 0.5 1C0.5 0.734784 0.605357 0.48043 0.792893 0.292893C0.98043 0.105357 1.23478 0 1.5 0V0ZM8.5 8H13.5C13.7652 8 14.0196 8.10536 14.2071 8.29289C14.3946 8.48043 14.5 8.73478 14.5 9C14.5 9.26522 14.3946 9.51957 14.2071 9.70711C14.0196 9.89464 13.7652 10 13.5 10H8.5C8.23478 10 7.98043 9.89464 7.79289 9.70711C7.60536 9.51957 7.5 9.26522 7.5 9C7.5 8.73478 7.60536 8.48043 7.79289 8.29289C7.98043 8.10536 8.23478 8 8.5 8ZM1.5 4H13.5C13.7652 4 14.0196 4.10536 14.2071 4.29289C14.3946 4.48043 14.5 4.73478 14.5 5C14.5 5.26522 14.3946 5.51957 14.2071 5.70711C14.0196 5.89464 13.7652 6 13.5 6H1.5C1.23478 6 0.98043 5.89464 0.792893 5.70711C0.605357 5.51957 0.5 5.26522 0.5 5C0.5 4.73478 0.605357 4.48043 0.792893 4.29289C0.98043 4.10536 1.23478 4 1.5 4Z" fill="#001D6C"/>
</svg>
