<svg width="25" height="24" viewBox="0 0 25 24" fill="none" xmlns="http://www.w3.org/2000/svg">
<path d="M5.784 12.57C5.90695 12.5175 6.03916 12.4903 6.17283 12.4898C6.3065 12.4893 6.43891 12.5156 6.56223 12.5672C6.68555 12.6188 6.79728 12.6945 6.89082 12.79C6.98436 12.8855 7.0578 12.9988 7.10681 13.1231C7.15582 13.2475 7.1794 13.3804 7.17615 13.514C7.17291 13.6477 7.1429 13.7793 7.08792 13.9011C7.03293 14.023 6.95408 14.1325 6.85602 14.2234C6.75796 14.3142 6.64268 14.3845 6.517 14.43C5.84854 14.6934 5.27483 15.1519 4.8705 15.7458C4.46618 16.3397 4.24997 17.0415 4.25 17.76V19.5C4.25 19.7652 4.35536 20.0196 4.54289 20.2071C4.73043 20.3946 4.98478 20.5 5.25 20.5H13.25C13.5152 20.5 13.7696 20.3946 13.9571 20.2071C14.1446 20.0196 14.25 19.7652 14.25 19.5V17.853C14.2501 17.1115 14.0249 16.3874 13.6041 15.7768C13.1834 15.1662 12.587 14.6979 11.894 14.434C11.7675 14.3901 11.6512 14.3213 11.5518 14.2316C11.4524 14.1419 11.3721 14.0332 11.3155 13.9119C11.259 13.7905 11.2273 13.6591 11.2225 13.5253C11.2177 13.3916 11.2397 13.2582 11.2874 13.1331C11.3351 13.008 11.4074 12.8938 11.5 12.7972C11.5927 12.7006 11.7038 12.6235 11.8267 12.5706C11.9497 12.5177 12.082 12.4901 12.2159 12.4893C12.3498 12.4885 12.4824 12.5146 12.606 12.566C13.6776 12.9742 14.5999 13.6983 15.2506 14.6425C15.9014 15.5867 16.2499 16.7063 16.25 17.853V19.5C16.25 20.2956 15.9339 21.0587 15.3713 21.6213C14.8087 22.1839 14.0456 22.5 13.25 22.5H5.25C4.45435 22.5 3.69129 22.1839 3.12868 21.6213C2.56607 21.0587 2.25 20.2956 2.25 19.5V17.76C2.25014 16.6402 2.58728 15.5463 3.21756 14.6206C3.84785 13.695 4.7421 12.9805 5.784 12.57ZM9.25 2.5C10.3109 2.5 11.3283 2.92143 12.0784 3.67157C12.8286 4.42172 13.25 5.43913 13.25 6.5V8.5C13.25 9.56087 12.8286 10.5783 12.0784 11.3284C11.3283 12.0786 10.3109 12.5 9.25 12.5C8.18913 12.5 7.17172 12.0786 6.42157 11.3284C5.67143 10.5783 5.25 9.56087 5.25 8.5V6.5C5.25 5.43913 5.67143 4.42172 6.42157 3.67157C7.17172 2.92143 8.18913 2.5 9.25 2.5ZM9.25 4.5C8.71957 4.5 8.21086 4.71071 7.83579 5.08579C7.46071 5.46086 7.25 5.96957 7.25 6.5V8.5C7.25 9.03043 7.46071 9.53914 7.83579 9.91421C8.21086 10.2893 8.71957 10.5 9.25 10.5C9.78043 10.5 10.2891 10.2893 10.6642 9.91421C11.0393 9.53914 11.25 9.03043 11.25 8.5V6.5C11.25 5.96957 11.0393 5.46086 10.6642 5.08579C10.2891 4.71071 9.78043 4.5 9.25 4.5ZM18.25 21.5C17.9848 21.5 17.7304 21.3946 17.5429 21.2071C17.3554 21.0196 17.25 20.7652 17.25 20.5C17.25 20.2348 17.3554 19.9804 17.5429 19.7929C17.7304 19.6054 17.9848 19.5 18.25 19.5H19.25C19.5152 19.5 19.7696 19.3946 19.9571 19.2071C20.1446 19.0196 20.25 18.7652 20.25 18.5V16.662C20.25 15.9512 20.0263 15.2583 19.6106 14.6817C19.1949 14.105 18.6084 13.6738 17.934 13.449C17.8094 13.4075 17.6941 13.3419 17.5949 13.2558C17.4956 13.1698 17.4143 13.0651 17.3555 12.9476C17.2967 12.8301 17.2617 12.7022 17.2523 12.5712C17.243 12.4402 17.2595 12.3086 17.301 12.184C17.3425 12.0594 17.4081 11.9441 17.4942 11.8449C17.5802 11.7456 17.6849 11.6643 17.8024 11.6055C17.9199 11.5467 18.0478 11.5117 18.1788 11.5023C18.3098 11.493 18.4414 11.5095 18.566 11.551C19.6388 11.9085 20.5719 12.5945 21.2331 13.5118C21.8943 14.4291 22.2501 15.5312 22.25 16.662V18.5C22.25 19.2956 21.9339 20.0587 21.3713 20.6213C20.8087 21.1839 20.0456 21.5 19.25 21.5H18.25ZM15.25 3.5C14.9848 3.5 14.7304 3.39464 14.5429 3.20711C14.3554 3.01957 14.25 2.76522 14.25 2.5C14.25 2.23478 14.3554 1.98043 14.5429 1.79289C14.7304 1.60536 14.9848 1.5 15.25 1.5C16.3109 1.5 17.3283 1.92143 18.0784 2.67157C18.8286 3.42172 19.25 4.43913 19.25 5.5V7.5C19.25 8.56087 18.8286 9.57828 18.0784 10.3284C17.3283 11.0786 16.3109 11.5 15.25 11.5C14.9848 11.5 14.7304 11.3946 14.5429 11.2071C14.3554 11.0196 14.25 10.7652 14.25 10.5C14.25 10.2348 14.3554 9.98043 14.5429 9.79289C14.7304 9.60536 14.9848 9.5 15.25 9.5C15.7804 9.5 16.2891 9.28929 16.6642 8.91421C17.0393 8.53914 17.25 8.03043 17.25 7.5V5.5C17.25 4.96957 17.0393 4.46086 16.6642 4.08579C16.2891 3.71071 15.7804 3.5 15.25 3.5Z" fill="#001D6C"/>
</svg>
