<svg width="19" height="19" viewBox="0 0 19 19" fill="none" xmlns="http://www.w3.org/2000/svg">
<path d="M8.25002 14.5C9.03795 14.5 9.81816 14.3448 10.5461 14.0433C11.2741 13.7418 11.9355 13.2998 12.4927 12.7427C13.0498 12.1855 13.4918 11.5241 13.7933 10.7961C14.0948 10.0682 14.25 9.28795 14.25 8.50002C14.25 7.71208 14.0948 6.93187 13.7933 6.20391C13.4918 5.47596 13.0498 4.81453 12.4927 4.25737C11.9355 3.70022 11.2741 3.25827 10.5461 2.95674C9.81816 2.65521 9.03795 2.50002 8.25002 2.50002C6.65872 2.50002 5.13259 3.13216 4.00737 4.25737C2.88216 5.38259 2.25002 6.90872 2.25002 8.50002C2.25002 10.0913 2.88216 11.6174 4.00737 12.7427C5.13259 13.8679 6.65872 14.5 8.25002 14.5ZM14.57 13.406L18.15 16.986C18.2455 17.0783 18.3216 17.1887 18.3739 17.3108C18.4262 17.4328 18.4537 17.564 18.4548 17.6968C18.4558 17.8296 18.4304 17.9613 18.38 18.0841C18.3297 18.207 18.2553 18.3186 18.1614 18.4124C18.0674 18.5062 17.9557 18.5804 17.8328 18.6306C17.7099 18.6808 17.5782 18.706 17.4454 18.7048C17.3126 18.7035 17.1814 18.6758 17.0595 18.6233C16.9375 18.5708 16.8272 18.4946 16.735 18.399L13.155 14.819C11.5475 16.0669 9.52481 16.6552 7.49877 16.4642C5.47273 16.2732 3.59562 15.3173 2.24957 13.7911C0.903512 12.2648 0.1897 10.283 0.253441 8.24894C0.317182 6.21492 1.15368 4.28164 2.59266 2.84266C4.03164 1.40368 5.96492 0.567182 7.99894 0.503441C10.033 0.4397 12.0148 1.15351 13.5411 2.49957C15.0673 3.84562 16.0232 5.72273 16.2142 7.74877C16.4052 9.77481 15.8169 11.7975 14.569 13.405L14.57 13.406Z" fill="#001D6C"/>
</svg>
