<svg width="24" height="18" viewBox="0 0 24 18" fill="none" xmlns="http://www.w3.org/2000/svg">
<g clip-path="url(#clip0_2136_4608)">
<path d="M0 0H24V18H0V0Z" fill="#EE1C25"/>
<path d="M2.88004 6.65999L4.50002 1.79999L6.11999 6.65999L1.80005 3.68999H7.19998L2.88004 6.65999Z" fill="#FFFF00"/>
<path d="M9.90648 1.89314L8.23932 2.26259L9.35138 0.966717L9.24231 2.71079L8.31714 1.16676L9.90648 1.89314Z" fill="#FFFF00"/>
<path d="M11.5889 4.02553L9.90892 3.71947L11.4365 2.95633L10.6596 4.5216L10.4057 2.7396L11.5889 4.02553Z" fill="#FFFF00"/>
<path d="M11.3438 7.01717L9.93472 6.05254L11.6407 5.9788L10.293 7.09108L10.7879 5.36046L11.3438 7.01717Z" fill="#FFFF00"/>
<path d="M9.22448 8.97153L8.29733 7.53753L9.89944 8.12843L8.22667 8.63384L9.3516 7.22868L9.22448 8.97153Z" fill="#FFFF00"/>
</g>
<defs>
<clipPath id="clip0_2136_4608">
<rect width="24" height="18" fill="white"/>
</clipPath>
</defs>
</svg>
